<svg id="Group_17" data-name="Group 17" xmlns="http://www.w3.org/2000/svg" xmlns:xlink="http://www.w3.org/1999/xlink" width="147.664" height="35.06" viewBox="0 0 147.664 35.06">
  <defs>
    <radialGradient id="radial-gradient" cx="0.088" cy="0.23" r="1.308" gradientUnits="objectBoundingBox">
      <stop offset="0" stop-color="#5d92e3"/>
      <stop offset="0" stop-color="#0a3ca0"/>
      <stop offset="1" stop-color="#9f32aa"/>
    </radialGradient>
    <linearGradient id="linear-gradient" x1="0.761" y1="-0.256" x2="-0.025" y2="0.223" gradientUnits="objectBoundingBox">
      <stop offset="0" stop-color="#00c8dc"/>
      <stop offset="1" stop-color="#00c8dc" stop-opacity="0.012"/>
    </linearGradient>
  </defs>
  <path id="Union_2" data-name="Union 2" d="M61.312,21.015a8.854,8.854,0,0,1-1.4-.383,7.781,7.781,0,0,1-1.244-.579,6.074,6.074,0,0,1-1.005-.723l.825-1.36a1.168,1.168,0,0,1,.376-.376,1.057,1.057,0,0,1,.55-.13,1.16,1.16,0,0,1,.63.188q.3.188.687.4a6.073,6.073,0,0,0,.919.406,4.045,4.045,0,0,0,1.338.188,3.462,3.462,0,0,0,1.092-.152,2.291,2.291,0,0,0,.752-.4,1.488,1.488,0,0,0,.434-.571,1.71,1.71,0,0,0,.138-.673A1.2,1.2,0,0,0,65.088,16a2.724,2.724,0,0,0-.825-.579,7.872,7.872,0,0,0-1.172-.441q-.659-.2-1.345-.427a12.318,12.318,0,0,1-1.346-.543,4.554,4.554,0,0,1-1.172-.789,3.567,3.567,0,0,1-.825-1.172,4.094,4.094,0,0,1-.311-1.678,4.268,4.268,0,0,1,.362-1.737A4.061,4.061,0,0,1,59.518,7.2a5.278,5.278,0,0,1,1.75-.984,7.287,7.287,0,0,1,2.423-.369,7.419,7.419,0,0,1,2.792.507,6.3,6.3,0,0,1,2.1,1.331l-.81,1.288a.951.951,0,0,1-.3.326.786.786,0,0,1-.4.094,1.28,1.28,0,0,1-.557-.145c-.2-.1-.427-.2-.687-.325a6.362,6.362,0,0,0-.89-.326,4.265,4.265,0,0,0-1.179-.145,2.715,2.715,0,0,0-1.657.449,1.394,1.394,0,0,0-.6,1.172,1.116,1.116,0,0,0,.311.8,2.8,2.8,0,0,0,.825.572,8.011,8.011,0,0,0,1.165.441q.65.2,1.323.426t1.324.528a4.645,4.645,0,0,1,1.165.752,3.515,3.515,0,0,1,.825,1.092,3.474,3.474,0,0,1,.311,1.534,5.017,5.017,0,0,1-.384,1.975,4.277,4.277,0,0,1-1.135,1.563,5.348,5.348,0,0,1-1.86,1.027,8.7,8.7,0,0,1-4.051.232Zm-16.2-.275a4.306,4.306,0,0,1-1.57-1.165,5.091,5.091,0,0,1-.963-1.787,7.573,7.573,0,0,1-.325-2.279V6.076h3.573V15.51a3.168,3.168,0,0,0,.63,2.105,2.333,2.333,0,0,0,1.888.745,3.775,3.775,0,0,0,1.737-.412,6.085,6.085,0,0,0,1.533-1.136V6.076h3.574V20.921H53a.841.841,0,0,1-.9-.651l-.246-1.186a7.979,7.979,0,0,1-2.011,1.5,5.547,5.547,0,0,1-2.59.571A5.273,5.273,0,0,1,45.111,20.74ZM82.323,20.6A6.453,6.453,0,0,1,80,19.068a6.9,6.9,0,0,1-1.491-2.416,9.057,9.057,0,0,1-.528-3.182,9.021,9.021,0,0,1,.528-3.169A6.75,6.75,0,0,1,80,7.9,6.565,6.565,0,0,1,82.323,6.38a8.2,8.2,0,0,1,3.024-.536,8.1,8.1,0,0,1,3,.536A6.593,6.593,0,0,1,90.664,7.9a6.678,6.678,0,0,1,1.483,2.4,9.152,9.152,0,0,1,.521,3.169,9.189,9.189,0,0,1-.521,3.182,6.823,6.823,0,0,1-1.483,2.416A6.48,6.48,0,0,1,88.35,20.6a8.091,8.091,0,0,1-3,.535A8.186,8.186,0,0,1,82.323,20.6Zm.239-10.757a6.231,6.231,0,0,0-.9,3.653,6.162,6.162,0,0,0,.9,3.639,3.206,3.206,0,0,0,2.785,1.252,3.144,3.144,0,0,0,2.742-1.244,6.237,6.237,0,0,0,.889-3.646,6.309,6.309,0,0,0-.889-3.661,3.13,3.13,0,0,0-2.742-1.259A3.191,3.191,0,0,0,82.562,9.846ZM3.386,20.7a5.18,5.18,0,0,1-1.809-1.244A5.6,5.6,0,0,1,.412,17.513,7.4,7.4,0,0,1,0,14.974a10.453,10.453,0,0,1,.254-2.3,10.306,10.306,0,0,1,.73-2.142A9.119,9.119,0,0,1,2.156,8.666,7.945,7.945,0,0,1,3.726,7.19a7.21,7.21,0,0,1,1.925-.97A7.113,7.113,0,0,1,7.9,5.874a5.69,5.69,0,0,1,2.032.333,4.6,4.6,0,0,1,1.462.861,3.515,3.515,0,0,1,.875,1.18,3.127,3.127,0,0,1,.29,1.272,4.135,4.135,0,0,1-.4,1.823,3.726,3.726,0,0,1-1.418,1.476A10.024,10.024,0,0,1,7.958,13.94a29.378,29.378,0,0,1-4.486.745v.188q0,3.5,2.967,3.5a4.684,4.684,0,0,0,1.128-.123,4.736,4.736,0,0,0,.861-.3,4.029,4.029,0,0,0,.665-.391q.3-.217.55-.391a4.279,4.279,0,0,1,.5-.3,1.18,1.18,0,0,1,.535-.123.733.733,0,0,1,.34.087,1.085,1.085,0,0,1,.3.231l.912,1.1A15.252,15.252,0,0,1,10.721,19.5a8.28,8.28,0,0,1-1.5.926,7.047,7.047,0,0,1-1.621.536,9.275,9.275,0,0,1-1.852.174A6.056,6.056,0,0,1,3.386,20.7ZM6.352,8.659a3.7,3.7,0,0,0-1.121.831,5.354,5.354,0,0,0-.868,1.281A7.912,7.912,0,0,0,3.777,12.4a23.605,23.605,0,0,0,2.887-.543,7.379,7.379,0,0,0,1.685-.637,1.872,1.872,0,0,0,.789-.738,1.858,1.858,0,0,0,.195-.832A1.2,1.2,0,0,0,9.238,9.2a1.146,1.146,0,0,0-.29-.412,1.6,1.6,0,0,0-.506-.3A2.032,2.032,0,0,0,7.7,8.362,3.086,3.086,0,0,0,6.352,8.659ZM26.588,20.921V0h13.2V3.1H30.493V9.288h7.842V12.4H30.493v8.522Zm78.173,0V11.472a3.2,3.2,0,0,0-.622-2.105,2.33,2.33,0,0,0-1.9-.744,3.721,3.721,0,0,0-1.736.419,6.224,6.224,0,0,0-1.534,1.143V20.92H95.4V6.076h2.184a.879.879,0,0,1,.913.651L98.742,7.9a9.7,9.7,0,0,1,.948-.832,6.015,6.015,0,0,1,1.056-.652A5.925,5.925,0,0,1,101.94,6a6.011,6.011,0,0,1,1.389-.152,5.326,5.326,0,0,1,2.156.412,4.251,4.251,0,0,1,1.57,1.158,5.092,5.092,0,0,1,.955,1.779,7.546,7.546,0,0,1,.326,2.278V20.92Zm-33.215,0V6.076h3.588V20.92Zm-56.43-7.249v-2.98h7.495v2.98Z" transform="translate(38.829 8.128)" stroke="rgba(0,0,0,0)" stroke-width="1"/>
  <path id="Path_7" data-name="Path 7" d="M161.056,10.859a2.372,2.372,0,0,0-.731-.484,2.236,2.236,0,0,0-.9-.181,2.147,2.147,0,0,0-.875.181,2.263,2.263,0,0,0-1.2,1.208,2.236,2.236,0,0,0-.181.9,2.1,2.1,0,0,0,.181.868,2.3,2.3,0,0,0,1.2,1.193,2.158,2.158,0,0,0,.875.18,2.247,2.247,0,0,0,.9-.18,2.359,2.359,0,0,0,1.23-1.193,2.031,2.031,0,0,0,.188-.868,2.161,2.161,0,0,0-.188-.9,2.329,2.329,0,0,0-.5-.724" transform="translate(-47.289 -2.601)"/>
  <g id="Symbols">
    <g id="identity_e-fusion-identity" data-name="identity/e-fusion-identity">
      <path id="Shape" d="M23.786,0a1.167,1.167,0,0,0-.92.454L19.382,4.967H4.09A4.1,4.1,0,0,0,0,9.057V26a4.1,4.1,0,0,0,4.09,4.09H8.967l.78-2.337H4.09A1.755,1.755,0,0,1,2.337,26V9.057A1.755,1.755,0,0,1,4.09,7.3H17.577L7.84,19.917A1.168,1.168,0,0,0,8.765,21.8h6.928a1.168,1.168,0,1,0,0-2.337h-4.55L20.5,7.347,19.42,10.575a1.169,1.169,0,0,0,2.218.739L24.9,1.539A1.169,1.169,0,0,0,23.795,0Zm2.307,4.967L25.314,7.3H30.97a1.755,1.755,0,0,1,1.753,1.753V26a1.755,1.755,0,0,1-1.753,1.753H17.483L27.22,15.143A1.169,1.169,0,0,0,26.3,13.26H19.367a1.169,1.169,0,0,0,0,2.338h4.55L14.563,27.713l1.076-3.227a1.168,1.168,0,1,0-2.216-.74l-3.262,9.776a1.168,1.168,0,0,0,2.033,1.084l3.484-4.512H30.97A4.1,4.1,0,0,0,35.06,26V9.057a4.1,4.1,0,0,0-4.09-4.09Z" fill-rule="evenodd" fill="url(#radial-gradient)"/>
      <path id="Shape-2" data-name="Shape" d="M23.786,0a1.167,1.167,0,0,0-.92.454L19.382,4.967H4.09A4.1,4.1,0,0,0,0,9.057V26a4.1,4.1,0,0,0,4.09,4.09H8.967l.78-2.337H4.09A1.755,1.755,0,0,1,2.337,26V9.057A1.755,1.755,0,0,1,4.09,7.3H17.577L7.84,19.917A1.168,1.168,0,0,0,8.765,21.8h6.928a1.168,1.168,0,1,0,0-2.337h-4.55L20.5,7.347,19.42,10.575a1.169,1.169,0,0,0,2.218.739L24.9,1.539A1.169,1.169,0,0,0,23.795,0Zm2.307,4.967L25.314,7.3H30.97a1.755,1.755,0,0,1,1.753,1.753V26a1.755,1.755,0,0,1-1.753,1.753H17.483L27.22,15.143A1.169,1.169,0,0,0,26.3,13.26H19.367a1.169,1.169,0,0,0,0,2.338h4.55L14.563,27.713l1.076-3.227a1.168,1.168,0,1,0-2.216-.74l-3.262,9.776a1.168,1.168,0,0,0,2.033,1.084l3.484-4.512H30.97A4.1,4.1,0,0,0,35.06,26V9.057a4.1,4.1,0,0,0-4.09-4.09Z" fill-rule="evenodd" fill="url(#linear-gradient)"/>
    </g>
  </g>
</svg>
